# xmcd
#
# Track frame offsets:
#	150
#	30603
#	44133
#	77473
#	92728
#	113395
#	134533
#	156450
#	184420
#	247178
#	300295
#
# Disc length: 4450 seconds
#
# Revision: 2
# Processed by: cddbd v1.4PL0 Copyright (c) Steve Scherf et al.
# Submitted via: EasyCDDAExtractor 5.1.0
#
DISCID=8e11600b
DTITLE=The Marshall Tucker Band - Where We All Belong
DYEAR=1974
DGENRE=Country
TTITLE0=This Ol' Cowboy
TTITLE1=Low Down Ways
TTITLE2=In My Own Way
TTITLE3=How Can I Slow Down
TTITLE4=Where A Country Boy Belongs
TTITLE5=Now She's Gone
TTITLE6=Try One More Time
TTITLE7=Ramblin'
TTITLE8=24 Hours At A Time
TTITLE9=Everyday (I Have The Blues)
TTITLE10=Take The Highway
EXTD=
EXTT0=
EXTT1=
EXTT2=
EXTT3=
EXTT4=
EXTT5=
EXTT6=
EXTT7=
EXTT8=
EXTT9=
EXTT10=
PLAYORDER=
